<svg id="svg" version="1.1" xmlns="http://www.w3.org/2000/svg" xmlns:xlink="http://www.w3.org/1999/xlink" width="400" height="224" viewBox="0, 0, 400,224"><g id="svgg"><path id="path0" d="M116.303 81.816 C 112.263 81.967,107.570 82.795,106.601 83.527 C 106.452 83.639,105.886 83.858,105.343 84.014 C 104.799 84.170,103.969 84.540,103.498 84.838 C 103.027 85.135,102.559 85.378,102.457 85.378 C 102.355 85.378,101.925 85.638,101.500 85.957 C 101.076 86.275,100.290 86.744,99.755 86.999 C 98.236 87.724,92.508 93.167,92.201 94.176 C 92.117 94.452,91.661 95.186,91.188 95.807 C 90.714 96.428,90.063 97.537,89.742 98.272 C 89.420 99.007,88.966 100.014,88.733 100.511 C 88.500 101.008,88.158 102.016,87.974 102.752 C 87.789 103.488,87.428 104.796,87.172 105.658 C 86.532 107.817,86.586 117.114,87.249 118.768 C 87.471 119.322,87.790 120.381,87.959 121.120 C 89.175 126.466,94.900 133.911,100.206 137.046 C 106.385 140.698,109.455 141.599,116.975 141.966 C 121.339 142.179,124.314 141.769,129.672 140.218 C 131.147 139.791,133.649 138.611,134.569 137.909 C 134.960 137.611,135.361 137.367,135.460 137.367 C 135.768 137.367,138.122 135.751,138.711 135.136 C 139.020 134.814,139.776 134.135,140.392 133.628 C 141.008 133.120,141.682 132.414,141.890 132.057 L 142.267 131.410 139.985 129.132 C 137.878 127.029,135.979 125.199,134.655 123.993 C 134.073 123.464,133.111 123.701,132.063 124.632 C 131.837 124.832,130.947 125.475,130.084 126.059 C 129.221 126.644,128.283 127.353,127.998 127.634 C 127.714 127.914,127.058 128.214,126.542 128.299 C 126.025 128.384,125.190 128.639,124.685 128.866 C 122.143 130.010,114.367 130.071,111.940 128.965 C 111.566 128.795,110.857 128.493,110.364 128.294 C 109.341 127.881,107.094 126.418,106.818 125.985 C 106.717 125.825,106.277 125.372,105.841 124.976 C 104.542 123.798,103.044 121.672,102.579 120.346 C 102.340 119.663,102.064 119.003,101.967 118.880 C 100.616 117.163,100.481 107.638,101.773 105.157 C 102.014 104.693,102.370 103.860,102.562 103.305 C 102.755 102.751,103.155 101.994,103.452 101.625 C 103.750 101.255,104.492 100.329,105.102 99.566 C 105.712 98.803,106.591 97.902,107.055 97.562 C 107.519 97.222,108.000 96.831,108.123 96.691 C 108.579 96.177,111.770 94.820,113.725 94.309 C 117.633 93.287,122.953 93.772,126.047 95.431 C 126.538 95.695,127.056 95.910,127.198 95.910 C 127.340 95.910,127.970 96.263,128.597 96.695 C 129.224 97.126,129.835 97.479,129.955 97.479 C 130.075 97.479,130.779 97.983,131.519 98.599 C 133.521 100.265,133.641 100.227,136.471 97.002 C 137.765 95.528,139.453 93.645,140.222 92.819 C 142.079 90.824,142.112 90.270,140.442 89.120 C 139.791 88.672,139.016 88.075,138.719 87.794 C 138.167 87.271,136.512 86.266,134.631 85.312 C 134.051 85.017,133.446 84.673,133.286 84.548 C 132.520 83.942,126.562 82.238,124.034 81.900 C 122.491 81.694,120.212 81.670,116.303 81.816 M283.249 81.788 C 282.325 81.880,280.968 82.121,280.233 82.322 C 279.498 82.524,278.699 82.689,278.458 82.689 C 277.997 82.689,274.524 84.337,273.151 85.208 C 270.055 87.170,267.692 89.247,266.043 91.453 C 265.639 91.994,265.044 92.772,264.722 93.181 C 263.979 94.124,261.520 99.024,261.516 99.570 C 261.514 99.795,261.263 100.604,260.957 101.368 C 259.773 104.329,258.996 111.632,259.475 115.294 C 260.008 119.362,260.224 120.502,260.661 121.569 C 260.913 122.185,261.267 123.244,261.447 123.922 C 261.627 124.599,262.018 125.677,262.316 126.317 C 262.614 126.956,262.861 127.561,262.866 127.661 C 262.933 129.111,269.580 136.869,271.076 137.245 C 271.410 137.329,271.890 137.630,272.144 137.915 C 272.397 138.200,273.008 138.615,273.501 138.838 C 273.994 139.061,274.638 139.426,274.932 139.649 C 275.226 139.873,275.633 140.056,275.837 140.056 C 276.041 140.056,276.607 140.261,277.095 140.511 C 281.873 142.961,293.647 142.244,298.259 139.223 C 298.688 138.941,299.155 138.711,299.296 138.711 C 299.437 138.711,299.685 138.553,299.846 138.359 C 300.006 138.165,300.548 137.803,301.049 137.553 C 301.551 137.304,302.415 136.631,302.969 136.057 C 303.524 135.483,304.230 134.807,304.538 134.554 C 305.450 133.805,307.480 131.473,307.747 130.868 C 307.882 130.560,308.275 129.977,308.619 129.572 C 308.962 129.167,309.244 128.721,309.244 128.581 C 309.244 128.441,309.387 128.167,309.562 127.973 C 310.239 127.222,311.680 122.870,312.523 119.033 C 313.599 114.136,313.583 107.373,312.487 103.995 C 312.304 103.431,311.961 102.213,311.725 101.289 C 311.107 98.872,310.311 96.695,309.866 96.203 C 309.654 95.969,309.218 95.284,308.897 94.680 C 307.433 91.925,303.610 87.529,301.737 86.446 C 301.367 86.232,300.448 85.662,299.694 85.179 C 295.528 82.508,289.171 81.197,283.249 81.788 M165.602 82.330 C 164.431 82.605,162.982 83.050,162.380 83.320 C 161.779 83.589,161.160 83.810,161.005 83.810 C 160.850 83.810,160.209 84.162,159.582 84.594 C 158.955 85.025,158.348 85.378,158.233 85.378 C 158.117 85.378,157.786 85.655,157.497 85.994 C 157.207 86.333,156.687 86.758,156.340 86.937 C 155.768 87.234,153.501 89.861,153.501 90.228 C 153.501 90.312,153.210 90.844,152.853 91.409 C 152.497 91.974,152.136 92.689,152.051 92.997 C 151.966 93.305,151.755 93.872,151.582 94.257 C 150.208 97.306,150.915 105.183,152.774 107.544 C 153.122 107.986,153.779 108.916,154.234 109.611 C 154.747 110.395,155.516 111.177,156.259 111.670 C 156.918 112.107,157.584 112.618,157.738 112.804 C 157.893 112.990,158.378 113.261,158.816 113.405 C 159.254 113.550,159.966 113.908,160.398 114.201 C 160.830 114.494,161.345 114.735,161.544 114.735 C 161.742 114.736,162.207 114.898,162.577 115.096 C 163.252 115.457,166.152 116.273,170.526 117.331 C 171.816 117.643,172.976 117.983,173.103 118.086 C 173.230 118.190,174.039 118.447,174.902 118.659 C 180.595 120.053,183.077 121.929,183.080 124.841 C 183.084 128.868,178.231 131.402,172.349 130.443 C 169.925 130.048,166.727 129.303,165.938 128.949 C 165.569 128.783,164.753 128.449,164.125 128.207 C 163.497 127.964,162.601 127.506,162.133 127.188 C 161.665 126.870,161.161 126.611,161.013 126.611 C 160.864 126.611,160.500 126.409,160.204 126.162 C 159.907 125.915,159.296 125.409,158.845 125.037 C 157.414 123.856,155.070 123.652,155.070 124.710 C 155.070 124.973,154.346 125.928,152.865 127.619 C 152.649 127.866,152.248 128.269,151.973 128.515 C 150.985 129.401,149.889 130.775,149.354 131.801 L 148.808 132.845 149.680 133.632 C 150.159 134.065,150.837 134.601,151.186 134.823 C 151.535 135.046,151.871 135.281,151.933 135.346 C 152.261 135.691,154.604 137.098,155.182 137.297 C 155.552 137.425,156.247 137.795,156.726 138.120 C 157.205 138.445,157.691 138.711,157.804 138.711 C 157.918 138.711,158.534 138.957,159.174 139.258 C 159.813 139.558,160.941 139.956,161.681 140.141 C 162.420 140.327,163.799 140.677,164.745 140.919 C 170.320 142.345,180.209 142.122,184.538 140.472 C 185.873 139.963,189.356 138.220,189.356 138.061 C 189.356 137.971,189.747 137.678,190.225 137.409 C 191.363 136.769,194.508 133.168,194.510 132.503 C 194.511 132.405,194.802 131.770,195.157 131.092 C 197.039 127.506,197.037 119.752,195.153 116.781 C 194.799 116.223,194.510 115.681,194.510 115.577 C 194.510 115.328,192.897 113.159,192.355 112.680 C 189.794 110.413,184.254 107.704,180.280 106.775 C 179.541 106.602,178.358 106.255,177.653 106.004 C 176.947 105.752,176.123 105.546,175.821 105.546 C 175.520 105.546,174.384 105.244,173.297 104.874 C 172.209 104.504,171.079 104.202,170.784 104.202 C 170.490 104.202,169.935 104.008,169.550 103.771 C 169.166 103.534,168.290 103.130,167.604 102.874 C 163.224 101.237,163.047 96.452,167.283 94.176 L 168.852 93.333 172.101 93.333 C 175.477 93.333,178.625 94.034,181.625 95.452 C 182.118 95.686,182.874 96.038,183.305 96.235 C 183.737 96.433,184.786 96.995,185.636 97.485 C 187.683 98.663,188.464 98.547,189.286 96.942 C 189.482 96.559,190.055 95.751,190.559 95.145 C 191.452 94.073,191.690 93.740,193.445 91.110 C 194.736 89.176,194.057 87.609,191.645 86.960 C 191.165 86.830,190.585 86.518,190.356 86.266 C 189.911 85.774,186.737 84.209,185.647 83.944 C 185.283 83.856,184.381 83.546,183.641 83.256 C 182.902 82.966,181.692 82.658,180.952 82.572 C 180.213 82.486,179.003 82.277,178.263 82.108 C 175.949 81.577,168.234 81.712,165.602 82.330 M210.896 82.991 C 210.758 83.158,210.547 84.494,210.427 85.961 C 210.307 87.427,210.106 89.384,209.981 90.308 C 209.856 91.232,209.655 94.459,209.533 97.479 C 209.412 100.499,209.200 104.574,209.064 106.535 C 208.759 110.912,208.846 111.524,209.835 111.937 C 210.238 112.105,210.704 112.407,210.871 112.608 C 211.038 112.809,211.534 113.158,211.974 113.382 C 212.413 113.606,212.965 114.002,213.200 114.262 C 213.435 114.521,213.732 114.734,213.860 114.734 C 213.989 114.734,214.485 115.005,214.963 115.337 C 215.993 116.050,217.417 116.122,218.824 115.531 C 222.738 113.886,229.235 113.912,232.829 115.587 C 234.993 116.595,235.813 117.571,236.498 119.952 L 237.065 121.920 236.627 123.629 C 236.387 124.569,236.189 125.549,236.188 125.806 C 236.182 127.013,233.159 129.129,230.580 129.731 C 228.372 130.247,222.065 129.778,220.872 129.010 C 220.608 128.841,220.040 128.581,219.609 128.433 C 218.694 128.119,215.865 126.448,215.304 125.890 C 214.719 125.308,213.162 124.370,212.782 124.370 C 212.437 124.370,211.627 125.134,210.138 126.864 C 209.674 127.403,208.788 128.398,208.167 129.076 C 207.547 129.754,206.890 130.585,206.707 130.924 C 206.525 131.263,206.299 131.541,206.205 131.541 C 205.780 131.541,205.253 132.885,205.426 133.530 C 205.615 134.239,208.636 136.664,210.082 137.268 C 210.498 137.442,210.908 137.698,210.994 137.837 C 211.080 137.976,211.666 138.326,212.298 138.616 C 212.929 138.906,213.697 139.291,214.006 139.471 C 220.517 143.276,236.867 142.502,241.793 138.154 C 242.101 137.883,242.926 137.258,243.626 136.766 C 244.959 135.830,246.180 134.408,246.835 133.028 C 247.048 132.580,247.311 132.213,247.421 132.213 C 247.841 132.213,249.226 128.692,249.647 126.553 C 250.218 123.657,250.222 119.689,249.658 116.525 C 249.236 114.154,249.157 113.972,247.339 111.198 C 246.878 110.493,246.499 109.812,246.499 109.684 C 246.497 108.905,242.668 106.083,239.776 104.730 C 236.183 103.049,229.109 102.340,224.228 103.172 C 221.450 103.645,221.416 103.616,221.412 100.728 C 221.408 97.647,221.895 95.256,222.662 94.596 L 223.284 94.061 234.738 94.226 L 246.192 94.392 246.849 93.826 L 247.507 93.260 247.507 88.320 C 247.507 83.643,247.483 83.363,247.059 83.042 C 246.422 82.560,211.295 82.511,210.896 82.991 M290.239 94.282 C 293.339 95.494,295.477 97.594,297.143 101.064 C 298.086 103.028,298.258 103.548,298.684 105.712 C 299.617 110.450,299.297 118.131,298.053 120.896 C 297.942 121.143,297.604 121.908,297.302 122.597 C 295.718 126.209,292.380 129.148,289.203 129.729 C 280.974 131.233,275.348 126.322,273.564 116.078 C 273.187 113.918,273.478 107.001,274.011 105.434 C 274.263 104.695,274.534 103.787,274.615 103.417 C 275.104 101.170,277.427 97.374,279.118 96.059 C 282.511 93.420,286.430 92.794,290.239 94.282 " stroke="none" fill="#f6f4f3" fill-rule="evenodd"></path><path id="path1" d="M0.000 112.045 L 0.000 224.090 78.178 224.090 L 156.355 224.090 156.470 219.328 C 156.563 215.457,156.655 214.430,156.962 213.841 C 157.338 213.121,157.641 208.798,158.168 196.639 C 158.292 193.778,158.427 192.644,158.708 192.087 C 158.969 191.571,159.128 190.473,159.228 188.501 C 159.308 186.938,159.514 184.448,159.687 182.969 C 160.021 180.111,160.642 172.399,161.220 163.922 C 161.654 157.549,161.926 154.836,162.481 151.325 C 162.719 149.820,162.913 148.287,162.913 147.918 C 162.913 147.550,163.026 147.000,163.164 146.697 C 163.364 146.258,163.342 146.042,163.052 145.629 C 162.852 145.344,162.689 144.734,162.689 144.274 C 162.689 143.815,162.569 143.174,162.422 142.852 C 161.912 141.732,164.491 141.462,167.691 142.301 C 169.790 142.850,178.401 143.008,180.168 142.529 C 180.723 142.379,182.034 142.071,183.081 141.844 C 184.890 141.454,188.235 140.028,188.235 139.648 C 188.235 139.550,188.639 139.292,189.132 139.075 C 189.625 138.857,190.028 138.587,190.028 138.475 C 190.028 138.363,190.507 138.026,191.092 137.727 C 191.678 137.428,192.385 136.897,192.665 136.547 C 193.970 134.910,194.986 133.397,195.112 132.900 C 195.189 132.600,195.483 132.014,195.765 131.597 C 196.048 131.181,196.338 130.367,196.410 129.790 C 196.481 129.212,196.761 128.336,197.031 127.843 C 197.749 126.534,197.738 121.071,197.015 119.611 C 196.755 119.085,196.485 118.280,196.414 117.822 C 196.343 117.363,196.055 116.708,195.775 116.365 C 195.495 116.023,195.088 115.263,194.869 114.678 C 194.651 114.092,194.386 113.613,194.280 113.613 C 194.174 113.613,193.905 113.300,193.682 112.916 C 193.308 112.273,191.668 111.035,190.196 110.286 C 189.857 110.113,189.580 109.893,189.580 109.796 C 189.580 109.496,186.715 108.029,185.599 107.758 C 185.015 107.616,184.387 107.372,184.202 107.216 C 183.819 106.893,182.578 106.553,180.974 106.332 C 180.369 106.249,179.601 105.979,179.267 105.732 C 178.865 105.434,178.030 105.206,176.800 105.058 C 175.650 104.919,174.719 104.674,174.361 104.417 C 174.022 104.173,173.041 103.901,171.995 103.760 C 170.908 103.614,170.140 103.397,170.033 103.206 C 169.936 103.034,169.329 102.718,168.682 102.505 C 168.036 102.292,167.299 101.906,167.044 101.647 C 166.790 101.388,166.390 101.066,166.155 100.932 C 165.475 100.544,165.521 97.378,166.218 96.491 C 166.496 96.139,166.723 95.716,166.723 95.553 C 166.723 95.389,167.151 95.142,167.675 95.003 C 168.199 94.864,168.845 94.548,169.111 94.302 C 169.839 93.628,173.725 93.612,175.463 94.275 C 176.140 94.534,177.278 94.852,177.990 94.981 C 178.702 95.111,179.570 95.420,179.918 95.668 C 180.267 95.916,180.979 96.187,181.501 96.271 C 182.023 96.354,182.719 96.649,183.048 96.925 C 183.376 97.202,184.023 97.585,184.484 97.778 C 184.945 97.971,185.322 98.223,185.322 98.340 C 185.322 98.751,187.156 99.304,188.029 99.157 C 189.007 98.992,189.420 98.585,189.794 97.421 C 189.942 96.958,190.258 96.476,190.494 96.349 C 190.731 96.222,190.924 95.986,190.924 95.825 C 190.924 95.663,191.280 95.137,191.714 94.656 C 193.070 93.155,193.254 92.918,193.613 92.213 C 193.806 91.836,194.187 91.303,194.461 91.030 C 195.082 90.408,195.172 88.482,194.601 88.020 C 194.404 87.861,194.020 87.511,193.748 87.241 C 193.475 86.972,192.776 86.631,192.193 86.484 C 191.568 86.327,191.038 86.038,190.899 85.779 C 190.770 85.538,190.294 85.186,189.842 84.998 C 189.390 84.810,188.966 84.571,188.901 84.467 C 188.707 84.159,185.616 82.949,182.859 82.102 L 180.283 81.310 174.231 81.123 C 166.858 80.896,167.181 80.996,168.649 79.406 C 169.864 78.090,170.158 77.247,170.123 75.182 C 170.114 74.689,170.085 73.076,170.059 71.597 C 170.024 69.660,170.119 68.469,170.399 67.339 C 170.872 65.429,171.151 56.183,170.795 54.230 C 170.271 51.353,169.966 50.696,168.364 48.998 C 167.196 47.758,166.709 47.034,166.301 45.929 C 166.007 45.133,165.517 43.927,165.212 43.249 C 164.302 41.231,164.266 41.082,164.031 38.402 C 163.790 35.651,164.013 33.242,164.591 32.356 C 165.020 31.698,165.550 29.723,165.726 28.123 C 165.808 27.384,166.020 26.073,166.199 25.210 C 166.377 24.347,166.519 22.698,166.515 21.546 C 166.504 18.576,167.138 13.027,167.711 11.092 C 167.893 10.476,168.253 9.165,168.511 8.179 C 168.769 7.193,169.176 5.681,169.416 4.818 C 169.661 3.938,169.854 2.536,169.856 1.625 L 169.860 0.000 84.930 0.000 L 0.000 0.000 0.000 112.045 M230.634 2.766 C 230.736 5.411,231.950 9.458,233.064 10.870 C 233.436 11.342,234.157 15.010,234.406 17.703 C 234.973 23.832,236.427 30.263,237.676 32.169 C 238.105 32.825,238.021 33.845,237.121 38.880 C 236.694 41.268,236.579 41.558,235.282 43.473 C 234.823 44.151,234.380 45.118,234.297 45.621 C 234.083 46.924,233.511 47.745,232.031 48.873 C 229.936 50.470,229.244 51.971,229.153 55.116 C 229.041 58.950,229.363 63.020,229.846 63.906 C 230.207 64.568,230.256 65.327,230.286 70.812 C 230.318 76.535,230.354 77.052,230.790 78.058 C 231.049 78.653,231.263 79.208,231.265 79.290 C 231.268 79.373,231.468 79.692,231.709 80.000 C 231.950 80.308,232.149 80.639,232.152 80.736 C 232.164 81.150,229.975 81.831,228.571 81.850 C 220.554 81.958,215.877 81.877,213.333 81.587 L 211.204 81.344 210.397 82.251 C 209.424 83.344,209.405 83.526,209.074 94.966 C 208.954 99.143,208.759 102.612,208.631 102.851 C 208.431 103.223,208.194 105.012,207.812 109.020 C 207.618 111.057,207.928 111.845,209.083 112.252 C 209.634 112.446,210.350 112.857,210.673 113.165 C 211.894 114.329,212.349 114.686,213.183 115.133 C 213.655 115.386,214.162 115.758,214.309 115.960 C 215.016 116.927,219.151 116.716,221.961 115.570 C 223.501 114.942,228.017 114.752,229.605 115.249 C 231.633 115.883,233.611 116.783,234.020 117.259 C 234.243 117.519,234.640 117.839,234.901 117.970 C 235.605 118.323,235.772 119.218,235.787 122.717 L 235.799 125.881 234.897 126.783 C 234.379 127.301,233.675 127.753,233.244 127.845 C 232.831 127.932,232.276 128.203,232.010 128.446 C 230.721 129.629,223.361 129.628,221.674 128.445 C 221.339 128.210,220.677 127.946,220.203 127.860 C 219.729 127.773,218.932 127.407,218.432 127.045 C 217.933 126.683,217.381 126.387,217.207 126.387 C 217.034 126.387,216.286 125.785,215.546 125.049 C 213.319 122.836,210.420 123.272,210.420 125.821 C 210.420 126.015,210.158 126.273,209.838 126.395 C 209.518 126.516,209.203 126.821,209.138 127.070 C 209.072 127.320,208.736 127.671,208.391 127.850 C 208.045 128.028,207.702 128.366,207.628 128.601 C 207.553 128.835,207.295 129.079,207.054 129.142 C 206.813 129.205,206.515 129.521,206.393 129.844 C 206.270 130.167,206.026 130.487,205.850 130.554 C 204.540 131.057,204.258 134.663,205.495 135.094 C 205.843 135.216,206.233 135.511,206.361 135.750 C 206.489 135.989,206.900 136.312,207.274 136.467 C 207.649 136.622,207.955 136.819,207.955 136.904 C 207.955 137.106,209.441 137.815,209.862 137.815 C 210.040 137.815,210.352 138.069,210.555 138.379 C 210.792 138.740,211.285 139.034,211.924 139.195 C 212.474 139.333,212.974 139.579,213.036 139.740 C 213.098 139.901,213.669 140.202,214.305 140.409 C 214.942 140.616,215.628 140.930,215.831 141.107 C 216.034 141.283,216.861 141.521,217.670 141.636 C 218.478 141.750,219.573 142.006,220.102 142.204 C 222.696 143.174,230.328 143.225,233.725 142.295 C 236.974 141.407,237.967 142.010,237.152 144.378 C 236.785 145.443,236.933 148.314,237.438 149.916 C 237.625 150.508,237.841 152.727,237.962 155.294 C 238.075 157.697,238.273 160.067,238.402 160.560 C 238.530 161.053,238.743 163.272,238.874 165.490 C 239.006 167.709,239.260 170.532,239.440 171.765 C 239.620 172.997,239.925 175.770,240.119 177.927 C 240.312 180.084,240.558 182.655,240.665 183.641 C 240.773 184.627,240.869 186.707,240.879 188.263 C 240.891 190.260,241.002 191.380,241.255 192.073 C 241.489 192.714,241.685 194.409,241.821 196.975 C 241.935 199.132,242.131 201.653,242.257 202.577 C 242.382 203.501,242.569 206.282,242.671 208.757 C 242.776 211.325,242.966 213.461,243.112 213.733 C 243.258 214.006,243.461 216.304,243.585 219.094 C 243.705 221.780,243.805 224.003,243.807 224.034 C 243.808 224.064,278.952 224.090,321.905 224.090 L 400.000 224.090 400.000 112.045 L 400.000 0.000 315.264 0.000 L 230.528 0.000 230.634 2.766 M115.336 79.576 C 115.683 79.712,116.977 79.848,118.211 79.877 C 120.346 79.928,122.326 80.325,122.014 80.639 C 121.934 80.719,118.842 80.835,115.144 80.896 C 108.505 81.007,108.414 81.015,108.011 81.513 C 107.404 82.263,106.518 82.187,106.399 81.373 L 106.304 80.729 108.800 80.476 C 110.172 80.337,111.842 80.029,112.510 79.792 C 113.945 79.283,114.485 79.241,115.336 79.576 M288.800 79.892 C 289.696 80.079,292.142 80.309,294.236 80.404 C 297.845 80.567,298.060 80.603,298.399 81.087 C 298.596 81.367,298.997 81.688,299.290 81.800 C 299.887 82.027,299.813 82.693,299.192 82.684 C 298.269 82.670,296.730 82.165,295.930 81.613 L 295.053 81.008 288.273 80.896 C 280.246 80.764,280.226 80.758,283.922 79.757 C 284.928 79.484,287.138 79.545,288.800 79.892 M124.034 81.900 C 126.562 82.238,132.520 83.942,133.286 84.548 C 133.446 84.673,134.051 85.017,134.631 85.312 C 136.512 86.266,138.167 87.271,138.719 87.794 C 139.016 88.075,139.791 88.672,140.442 89.120 C 142.112 90.270,142.079 90.824,140.222 92.819 C 139.453 93.645,137.765 95.528,136.471 97.002 C 133.641 100.227,133.521 100.265,131.519 98.599 C 130.779 97.983,130.075 97.479,129.955 97.479 C 129.835 97.479,129.224 97.126,128.597 96.695 C 127.970 96.263,127.340 95.910,127.198 95.910 C 127.056 95.910,126.538 95.695,126.047 95.431 C 122.953 93.772,117.633 93.287,113.725 94.309 C 111.770 94.820,108.579 96.177,108.123 96.691 C 108.000 96.831,107.519 97.222,107.055 97.562 C 106.591 97.902,105.712 98.803,105.102 99.566 C 104.492 100.329,103.750 101.255,103.452 101.625 C 103.155 101.994,102.755 102.751,102.562 103.305 C 102.370 103.860,102.014 104.693,101.773 105.157 C 100.481 107.638,100.616 117.163,101.967 118.880 C 102.064 119.003,102.340 119.663,102.579 120.346 C 103.044 121.672,104.542 123.798,105.841 124.976 C 106.277 125.372,106.717 125.825,106.818 125.985 C 107.094 126.418,109.341 127.881,110.364 128.294 C 110.857 128.493,111.566 128.795,111.940 128.965 C 114.367 130.071,122.143 130.010,124.685 128.866 C 125.190 128.639,126.025 128.384,126.542 128.299 C 127.058 128.214,127.714 127.914,127.998 127.634 C 128.283 127.353,129.221 126.644,130.084 126.059 C 130.947 125.475,131.837 124.832,132.063 124.632 C 133.111 123.701,134.073 123.464,134.655 123.993 C 135.979 125.199,137.878 127.029,139.985 129.132 L 142.267 131.410 141.890 132.057 C 141.682 132.414,141.008 133.120,140.392 133.628 C 139.776 134.135,139.020 134.814,138.711 135.136 C 138.122 135.751,135.768 137.367,135.460 137.367 C 135.361 137.367,134.960 137.611,134.569 137.909 C 132.467 139.513,127.882 141.018,122.913 141.736 C 117.945 142.453,110.171 141.710,106.234 140.140 C 97.325 136.588,89.663 128.614,87.959 121.120 C 87.790 120.381,87.471 119.322,87.249 118.768 C 86.586 117.114,86.532 107.817,87.172 105.658 C 87.428 104.796,87.789 103.488,87.974 102.752 C 88.158 102.016,88.500 101.008,88.733 100.511 C 88.966 100.014,89.420 99.007,89.742 98.272 C 90.063 97.537,90.714 96.428,91.188 95.807 C 91.661 95.186,92.117 94.452,92.201 94.176 C 92.508 93.167,98.236 87.724,99.755 86.999 C 100.290 86.744,101.076 86.275,101.500 85.957 C 101.925 85.638,102.355 85.378,102.457 85.378 C 102.559 85.378,103.027 85.135,103.498 84.838 C 103.969 84.540,104.799 84.170,105.343 84.014 C 105.886 83.858,106.452 83.639,106.601 83.527 C 108.291 82.251,119.101 81.242,124.034 81.900 M292.325 82.277 C 295.498 82.999,297.564 83.813,299.694 85.179 C 300.448 85.662,301.367 86.232,301.737 86.446 C 303.610 87.529,307.433 91.925,308.897 94.680 C 309.218 95.284,309.654 95.969,309.866 96.203 C 310.311 96.695,311.107 98.872,311.725 101.289 C 311.961 102.213,312.304 103.431,312.487 103.995 C 313.583 107.373,313.599 114.136,312.523 119.033 C 311.680 122.870,310.239 127.222,309.562 127.973 C 309.387 128.167,309.244 128.441,309.244 128.581 C 309.244 128.721,308.962 129.167,308.619 129.572 C 308.275 129.977,307.882 130.560,307.747 130.868 C 307.480 131.473,305.450 133.805,304.538 134.554 C 304.230 134.807,303.524 135.483,302.969 136.057 C 302.415 136.631,301.551 137.304,301.049 137.553 C 300.548 137.803,300.006 138.165,299.846 138.359 C 299.685 138.553,299.437 138.711,299.296 138.711 C 299.155 138.711,298.688 138.941,298.259 139.223 C 293.647 142.244,281.873 142.961,277.095 140.511 C 276.607 140.261,276.041 140.056,275.837 140.056 C 275.633 140.056,275.226 139.873,274.932 139.649 C 274.638 139.426,273.994 139.061,273.501 138.838 C 273.008 138.615,272.397 138.200,272.144 137.915 C 271.890 137.630,271.410 137.329,271.076 137.245 C 269.580 136.869,262.933 129.111,262.866 127.661 C 262.861 127.561,262.614 126.956,262.316 126.317 C 262.018 125.677,261.627 124.599,261.447 123.922 C 261.267 123.244,260.913 122.185,260.661 121.569 C 260.224 120.502,260.008 119.362,259.475 115.294 C 258.996 111.632,259.773 104.329,260.957 101.368 C 261.263 100.604,261.514 99.795,261.516 99.570 C 261.520 99.024,263.979 94.124,264.722 93.181 C 265.044 92.772,265.639 91.994,266.043 91.453 C 267.692 89.247,270.055 87.170,273.151 85.208 C 274.524 84.337,277.997 82.689,278.458 82.689 C 278.699 82.689,279.498 82.524,280.233 82.322 C 283.257 81.492,288.784 81.471,292.325 82.277 M105.546 81.902 C 105.546 81.962,105.201 82.155,104.780 82.331 C 104.358 82.507,103.901 82.861,103.764 83.118 C 103.533 83.550,102.185 83.828,102.185 83.444 C 102.185 82.556,103.177 81.793,104.332 81.793 C 105.000 81.793,105.546 81.842,105.546 81.902 M178.263 82.108 C 179.003 82.277,180.213 82.486,180.952 82.572 C 181.692 82.658,182.902 82.966,183.641 83.256 C 184.381 83.546,185.283 83.856,185.647 83.944 C 186.737 84.209,189.911 85.774,190.356 86.266 C 190.585 86.518,191.165 86.830,191.645 86.960 C 194.057 87.609,194.736 89.176,193.445 91.110 C 191.690 93.740,191.452 94.073,190.559 95.145 C 190.055 95.751,189.482 96.559,189.286 96.942 C 188.464 98.547,187.683 98.663,185.636 97.485 C 184.786 96.995,183.737 96.433,183.305 96.235 C 182.874 96.038,182.118 95.686,181.625 95.452 C 178.625 94.034,175.477 93.333,172.101 93.333 L 168.852 93.333 167.283 94.176 C 163.047 96.452,163.224 101.237,167.604 102.874 C 168.290 103.130,169.166 103.534,169.550 103.771 C 169.935 104.008,170.490 104.202,170.784 104.202 C 171.079 104.202,172.209 104.504,173.297 104.874 C 174.384 105.244,175.520 105.546,175.821 105.546 C 176.123 105.546,176.947 105.752,177.653 106.004 C 178.358 106.255,179.541 106.602,180.280 106.775 C 184.254 107.704,189.794 110.413,192.355 112.680 C 192.897 113.159,194.510 115.328,194.510 115.577 C 194.510 115.681,194.799 116.223,195.153 116.781 C 197.037 119.752,197.039 127.506,195.157 131.092 C 194.802 131.770,194.511 132.405,194.510 132.503 C 194.508 133.168,191.363 136.769,190.225 137.409 C 189.747 137.678,189.356 137.971,189.356 138.061 C 189.356 138.220,185.873 139.963,184.538 140.472 C 180.209 142.122,170.320 142.345,164.745 140.919 C 163.799 140.677,162.420 140.327,161.681 140.141 C 160.941 139.956,159.813 139.558,159.174 139.258 C 158.534 138.957,157.918 138.711,157.804 138.711 C 157.691 138.711,157.205 138.445,156.726 138.120 C 156.247 137.795,155.552 137.425,155.182 137.297 C 154.604 137.098,152.261 135.691,151.933 135.346 C 151.871 135.281,151.535 135.046,151.186 134.823 C 150.837 134.601,150.159 134.065,149.680 133.632 L 148.808 132.845 149.354 131.801 C 149.889 130.775,150.985 129.401,151.973 128.515 C 152.248 128.269,152.649 127.866,152.865 127.619 C 154.346 125.928,155.070 124.973,155.070 124.710 C 155.070 123.652,157.414 123.856,158.845 125.037 C 159.296 125.409,159.907 125.915,160.204 126.162 C 160.500 126.409,160.864 126.611,161.013 126.611 C 161.161 126.611,161.665 126.870,162.133 127.188 C 162.601 127.506,163.497 127.964,164.125 128.207 C 164.753 128.449,165.569 128.783,165.938 128.949 C 166.727 129.303,169.925 130.048,172.349 130.443 C 176.507 131.121,182.038 129.312,182.840 127.013 C 184.225 123.040,181.627 120.306,174.902 118.659 C 174.039 118.447,173.230 118.190,173.103 118.086 C 172.976 117.983,171.816 117.643,170.526 117.331 C 166.152 116.273,163.252 115.457,162.577 115.096 C 162.207 114.898,161.742 114.736,161.544 114.735 C 161.345 114.735,160.830 114.494,160.398 114.201 C 159.966 113.908,159.254 113.550,158.816 113.405 C 158.378 113.261,157.893 112.990,157.738 112.804 C 157.584 112.618,156.918 112.107,156.259 111.670 C 155.516 111.177,154.747 110.395,154.234 109.611 C 153.779 108.916,153.122 107.986,152.774 107.544 C 150.915 105.183,150.208 97.306,151.582 94.257 C 151.755 93.872,151.966 93.305,152.051 92.997 C 152.136 92.689,152.497 91.974,152.853 91.409 C 153.210 90.844,153.501 90.312,153.501 90.228 C 153.501 89.861,155.768 87.234,156.340 86.937 C 156.687 86.758,157.207 86.333,157.497 85.994 C 157.786 85.655,158.117 85.378,158.233 85.378 C 158.348 85.378,158.955 85.025,159.582 84.594 C 160.209 84.162,160.850 83.810,161.005 83.810 C 161.160 83.810,161.779 83.589,162.380 83.320 C 165.542 81.903,174.418 81.226,178.263 82.108 M247.059 83.042 C 247.483 83.363,247.507 83.643,247.507 88.320 L 247.507 93.260 246.849 93.826 L 246.192 94.392 234.738 94.226 L 223.284 94.061 222.662 94.596 C 221.895 95.256,221.408 97.647,221.412 100.728 C 221.416 103.616,221.450 103.645,224.228 103.172 C 229.109 102.340,236.183 103.049,239.776 104.730 C 242.668 106.083,246.497 108.905,246.499 109.684 C 246.499 109.812,246.878 110.493,247.339 111.198 C 249.157 113.972,249.236 114.154,249.658 116.525 C 250.222 119.689,250.218 123.657,249.647 126.553 C 249.226 128.692,247.841 132.213,247.421 132.213 C 247.311 132.213,247.048 132.580,246.835 133.028 C 246.180 134.408,244.959 135.830,243.626 136.766 C 242.926 137.258,242.101 137.883,241.793 138.154 C 236.867 142.502,220.517 143.276,214.006 139.471 C 213.697 139.291,212.929 138.906,212.298 138.616 C 211.666 138.326,211.080 137.976,210.994 137.837 C 210.908 137.698,210.498 137.442,210.082 137.268 C 208.636 136.664,205.615 134.239,205.426 133.530 C 205.253 132.885,205.780 131.541,206.205 131.541 C 206.299 131.541,206.525 131.263,206.707 130.924 C 206.890 130.585,207.547 129.754,208.167 129.076 C 208.788 128.398,209.674 127.403,210.138 126.864 C 211.627 125.134,212.437 124.370,212.782 124.370 C 213.162 124.370,214.719 125.308,215.304 125.890 C 215.865 126.448,218.694 128.119,219.609 128.433 C 220.040 128.581,220.608 128.841,220.872 129.010 C 222.065 129.778,228.372 130.247,230.580 129.731 C 233.159 129.129,236.182 127.013,236.188 125.806 C 236.189 125.549,236.387 124.569,236.627 123.629 L 237.065 121.920 236.498 119.952 C 235.813 117.571,234.993 116.595,232.829 115.587 C 229.235 113.912,222.738 113.886,218.824 115.531 C 217.417 116.122,215.993 116.050,214.963 115.337 C 214.485 115.005,213.989 114.734,213.860 114.734 C 213.732 114.734,213.435 114.521,213.200 114.262 C 212.965 114.002,212.413 113.606,211.974 113.382 C 211.534 113.158,211.038 112.809,210.871 112.608 C 210.704 112.407,210.238 112.105,209.835 111.937 C 208.846 111.524,208.759 110.912,209.064 106.535 C 209.200 104.574,209.412 100.499,209.533 97.479 C 209.655 94.459,209.856 91.232,209.981 90.308 C 210.106 89.384,210.307 87.427,210.427 85.961 C 210.547 84.494,210.758 83.158,210.896 82.991 C 211.295 82.511,246.422 82.560,247.059 83.042 M300.952 83.585 C 300.952 83.709,301.189 83.810,301.478 83.810 C 302.010 83.810,302.572 84.295,302.804 84.954 C 302.947 85.360,303.897 85.602,305.350 85.602 C 306.523 85.602,306.634 85.975,305.717 86.826 C 305.013 87.478,304.643 87.544,304.453 87.049 C 304.380 86.858,303.955 86.550,303.509 86.364 C 303.063 86.177,302.431 85.777,302.105 85.475 C 301.779 85.172,301.336 84.869,301.120 84.800 C 300.905 84.732,300.728 84.539,300.728 84.373 C 300.728 84.206,300.667 83.911,300.592 83.716 C 300.517 83.521,300.568 83.361,300.704 83.361 C 300.841 83.361,300.952 83.462,300.952 83.585 M101.531 84.034 C 102.054 84.034,101.656 84.734,100.970 85.020 C 100.549 85.196,100.092 85.550,99.954 85.807 C 99.748 86.193,99.491 86.275,98.480 86.275 C 97.351 86.275,97.255 86.315,97.255 86.790 C 97.255 87.408,96.866 87.843,96.314 87.843 C 95.582 87.843,95.794 86.728,96.583 86.430 C 96.952 86.290,97.255 86.048,97.255 85.892 C 97.255 85.736,97.632 85.451,98.092 85.258 C 98.553 85.066,99.133 84.722,99.381 84.493 C 99.873 84.041,100.558 83.814,101.027 83.948 C 101.191 83.995,101.418 84.034,101.531 84.034 M94.763 88.316 L 95.475 88.564 94.909 89.089 C 94.597 89.378,94.342 89.764,94.342 89.947 C 94.342 90.159,94.076 90.305,93.613 90.350 C 93.055 90.404,92.868 90.538,92.814 90.924 C 92.774 91.202,92.602 91.429,92.430 91.429 C 92.159 91.429,92.877 89.756,93.760 88.326 C 93.954 88.012,93.894 88.013,94.763 88.316 M309.156 90.700 C 309.644 91.344,309.560 92.773,309.033 92.773 C 308.691 92.773,308.567 92.562,308.450 91.781 C 308.244 90.408,308.563 89.920,309.156 90.700 M91.590 92.781 C 91.509 93.385,91.282 93.833,90.904 94.130 C 90.593 94.375,90.306 94.800,90.267 95.074 C 90.145 95.932,89.532 95.673,89.454 94.732 C 89.396 94.027,89.524 93.726,90.238 92.890 C 91.342 91.600,91.753 91.566,91.590 92.781 M283.585 93.751 C 279.025 95.297,275.572 99.018,274.615 103.417 C 274.534 103.787,274.263 104.695,274.011 105.434 C 271.931 111.549,274.287 122.884,278.490 126.988 C 284.190 132.554,293.933 130.280,297.302 122.597 C 297.604 121.908,297.942 121.143,298.053 120.896 C 299.638 117.373,299.571 106.578,297.941 102.799 C 296.354 99.122,295.240 97.551,292.906 95.703 C 290.662 93.926,285.968 92.943,283.585 93.751 M312.886 96.889 C 314.048 98.144,314.112 98.323,314.802 102.297 C 315.059 103.776,315.336 105.259,315.418 105.594 C 315.523 106.022,315.453 106.316,315.181 106.588 C 314.759 107.010,314.840 108.955,315.315 109.844 C 315.626 110.424,315.461 113.234,314.976 115.630 C 314.512 117.919,314.503 118.149,314.837 119.440 C 315.169 120.723,314.987 121.687,314.267 122.465 C 313.754 123.018,313.702 123.238,313.750 124.677 C 313.800 126.201,313.774 126.290,313.202 126.611 C 312.872 126.796,312.551 127.105,312.489 127.299 C 312.427 127.493,312.155 127.889,311.886 128.178 L 311.395 128.704 311.242 128.131 C 311.042 127.383,311.239 126.387,311.587 126.387 C 311.995 126.387,312.375 125.385,312.531 123.898 C 312.626 122.990,312.766 122.577,312.979 122.577 C 314.251 122.577,314.405 103.241,313.142 102.071 C 312.754 101.711,312.605 101.332,312.603 100.703 C 312.598 98.586,312.333 97.448,311.787 97.199 C 311.387 97.017,311.261 96.779,311.261 96.211 C 311.261 95.528,311.201 95.462,310.588 95.462 C 309.985 95.462,309.916 95.390,309.916 94.764 L 309.916 94.065 310.868 94.902 C 311.392 95.363,312.300 96.257,312.886 96.889 M121.728 95.320 C 123.302 95.372,123.798 95.568,123.243 95.919 C 122.838 96.175,121.448 96.193,121.061 95.947 C 120.791 95.776,118.186 96.503,117.223 97.018 C 116.890 97.196,116.620 97.159,116.107 96.865 C 115.198 96.343,113.662 96.817,113.211 97.759 C 112.860 98.494,112.694 98.520,112.157 97.927 C 111.679 97.400,111.185 97.347,111.009 97.805 C 110.909 98.065,108.944 98.824,108.369 98.824 C 107.933 98.824,108.314 97.956,108.803 97.833 C 109.117 97.754,109.464 97.447,109.578 97.148 C 109.761 96.665,109.940 96.597,111.171 96.538 C 112.285 96.484,112.607 96.382,112.806 96.022 C 112.942 95.776,113.080 95.530,113.113 95.477 C 113.284 95.200,115.358 95.052,117.647 95.155 C 119.064 95.218,120.901 95.292,121.728 95.320 M234.499 95.314 C 234.884 95.596,234.858 95.654,234.094 96.237 C 233.645 96.580,233.276 97.024,233.274 97.225 C 233.272 97.427,233.133 97.986,232.965 98.469 C 232.669 99.318,232.683 99.380,233.382 100.374 C 234.722 102.277,234.938 102.161,230.072 102.157 C 227.706 102.155,224.977 102.260,224.008 102.391 C 223.039 102.521,222.157 102.573,222.048 102.505 C 221.742 102.316,221.830 100.386,222.191 99.384 C 222.369 98.891,222.579 97.832,222.659 97.031 C 222.740 96.230,222.905 95.448,223.027 95.294 C 223.358 94.876,233.924 94.894,234.499 95.314 M290.462 95.376 C 291.231 95.851,290.326 96.484,289.394 96.123 C 288.102 95.622,285.977 95.789,285.292 96.446 C 284.362 97.337,281.905 96.858,281.905 95.786 C 281.905 95.138,289.489 94.775,290.462 95.376 M88.854 97.000 C 88.771 97.449,88.519 98.017,88.294 98.263 C 88.052 98.527,87.768 99.410,87.602 100.411 C 87.378 101.761,87.224 102.153,86.853 102.316 C 86.413 102.509,86.379 102.747,86.258 106.496 C 86.187 108.683,86.077 110.524,86.014 110.588 C 85.651 110.950,85.100 107.948,85.246 106.401 C 85.331 105.499,85.486 103.804,85.591 102.633 C 85.697 101.462,85.939 100.101,86.131 99.608 C 86.322 99.115,86.483 98.508,86.489 98.260 C 86.508 97.391,87.300 96.253,87.981 96.118 C 88.891 95.938,89.025 96.073,88.854 97.000 M281.681 96.631 C 281.681 96.981,279.652 99.048,279.308 99.048 C 279.164 99.048,278.921 99.199,278.768 99.384 C 278.251 100.006,277.871 99.779,277.871 98.848 C 277.871 98.091,277.950 97.956,278.467 97.826 C 278.795 97.744,279.423 97.380,279.863 97.018 C 280.675 96.349,281.681 96.135,281.681 96.631 M293.144 97.523 C 293.387 98.279,293.629 98.552,294.389 98.923 C 294.907 99.176,295.380 99.535,295.440 99.720 C 295.499 99.905,295.658 100.485,295.794 101.008 C 295.942 101.582,296.170 101.961,296.367 101.961 C 296.582 101.961,296.695 102.193,296.695 102.633 C 296.695 103.003,296.641 103.305,296.575 103.305 C 296.252 103.305,295.350 102.544,295.350 102.271 C 295.350 102.100,295.259 101.961,295.148 101.961 C 295.037 101.961,294.834 101.640,294.698 101.249 C 294.561 100.857,293.908 100.025,293.247 99.400 C 292.586 98.775,291.823 97.885,291.551 97.423 L 291.056 96.583 291.949 96.583 C 292.801 96.583,292.857 96.626,293.144 97.523 M108.144 99.082 C 108.316 99.359,107.665 99.944,107.184 99.944 C 106.817 99.944,106.803 99.449,107.160 99.092 C 107.500 98.752,107.938 98.748,108.144 99.082 M106.667 100.623 C 106.667 101.357,106.138 101.746,105.715 101.323 C 105.532 101.140,105.546 100.923,105.768 100.509 C 106.188 99.724,106.667 99.785,106.667 100.623 M277.462 101.305 C 277.585 101.885,277.537 102.140,277.267 102.346 C 276.749 102.741,276.527 102.498,276.527 101.537 C 276.527 100.138,277.180 99.976,277.462 101.305 M105.322 102.172 C 105.322 102.411,105.213 102.674,105.079 102.757 C 104.736 102.969,104.339 102.509,104.501 102.088 C 104.693 101.587,105.322 101.651,105.322 102.172 M104.122 103.253 C 104.367 103.410,104.169 105.654,103.884 105.938 C 103.540 106.283,103.082 105.709,103.084 104.937 C 103.090 103.326,103.415 102.799,104.122 103.253 M103.525 108.179 C 103.523 108.518,103.377 109.611,103.201 110.608 C 102.918 112.205,102.920 112.590,103.222 113.857 C 103.411 114.647,103.596 115.647,103.635 116.078 C 103.721 117.051,104.587 119.446,104.967 119.764 C 105.122 119.894,105.372 120.434,105.522 120.964 C 105.672 121.495,105.932 121.981,106.099 122.045 C 106.531 122.211,106.760 123.277,106.410 123.493 C 106.032 123.727,105.770 123.539,105.770 123.034 C 105.770 122.776,105.517 122.533,105.098 122.387 C 104.728 122.258,104.426 122.003,104.426 121.821 C 104.426 121.638,104.156 121.277,103.825 121.017 C 103.268 120.578,103.216 120.389,103.097 118.367 C 102.983 116.422,102.918 116.168,102.490 115.980 C 101.325 115.469,101.418 108.681,102.599 107.964 C 103.433 107.459,103.530 107.481,103.525 108.179 M86.249 118.319 C 86.272 120.679,85.979 121.322,85.627 119.682 C 85.298 118.146,85.311 116.014,85.658 114.872 L 85.938 113.950 86.084 115.182 C 86.165 115.860,86.239 117.272,86.249 118.319 M297.940 116.925 C 297.651 117.214,297.580 116.727,297.748 115.600 L 297.927 114.398 297.996 115.599 C 298.033 116.260,298.008 116.856,297.940 116.925 M275.852 116.518 C 275.984 117.007,276.302 117.554,276.560 117.735 C 277.024 118.060,277.022 118.069,276.245 118.869 C 275.304 119.838,275.190 119.652,275.185 117.143 C 275.182 115.455,275.488 115.168,275.852 116.518 M168.716 117.650 C 170.124 117.800,171.064 118.025,171.557 118.329 C 171.962 118.580,172.930 118.893,173.709 119.026 C 174.489 119.159,175.429 119.446,175.798 119.663 C 176.168 119.880,176.995 120.179,177.635 120.328 C 178.276 120.477,179.022 120.792,179.294 121.028 C 179.566 121.264,179.946 121.457,180.138 121.457 C 181.093 121.457,182.409 123.285,182.409 124.612 C 182.409 126.818,182.286 127.076,180.725 128.150 L 179.301 129.129 176.541 129.329 C 173.989 129.513,172.005 129.470,169.017 129.164 C 168.227 129.083,167.627 128.865,167.197 128.503 C 166.843 128.206,166.038 127.852,165.406 127.716 C 164.775 127.581,164.258 127.359,164.258 127.223 C 164.258 127.087,164.031 126.728,163.754 126.426 C 163.476 126.124,163.350 125.838,163.473 125.789 C 163.597 125.741,164.090 125.526,164.570 125.310 L 165.442 124.919 165.397 122.849 C 165.363 121.343,165.229 120.504,164.902 119.765 C 164.196 118.169,164.816 116.962,166.162 117.309 C 166.409 117.372,167.558 117.526,168.716 117.650 M296.712 118.840 C 296.539 119.012,296.471 118.888,296.471 118.401 C 296.471 117.517,296.785 117.200,296.880 117.989 C 296.921 118.324,296.845 118.707,296.712 118.840 M296.851 121.057 C 296.777 121.608,296.553 122.074,296.265 122.276 C 296.008 122.455,295.798 122.745,295.798 122.918 C 295.798 123.092,295.506 123.533,295.148 123.899 C 294.791 124.264,294.381 124.898,294.238 125.307 C 293.982 126.034,293.043 126.613,290.342 127.707 C 289.991 127.850,289.655 128.151,289.596 128.376 C 289.419 129.054,283.025 129.293,283.025 128.621 C 283.025 127.657,283.568 127.552,285.834 128.077 C 286.763 128.293,287.423 128.345,287.584 128.217 C 287.727 128.103,288.095 127.938,288.403 127.849 C 289.912 127.416,290.617 126.933,290.947 126.104 C 291.207 125.450,291.438 125.231,291.980 125.122 C 292.363 125.046,292.782 124.786,292.910 124.547 C 293.039 124.307,293.442 124.006,293.806 123.879 C 294.530 123.627,294.540 122.969,293.828 122.409 C 293.397 122.070,293.927 121.575,294.937 121.372 C 295.372 121.284,295.603 121.041,295.790 120.472 C 296.274 119.007,297.067 119.444,296.851 121.057 M278.087 121.666 C 278.215 121.904,278.319 122.403,278.319 122.775 C 278.319 123.284,278.513 123.598,279.104 124.049 C 279.535 124.378,279.888 124.828,279.888 125.050 C 279.888 125.285,280.131 125.534,280.472 125.647 C 281.343 125.938,281.868 127.507,281.094 127.507 C 280.738 127.507,280.560 127.378,280.560 127.120 C 280.560 126.639,278.796 125.043,278.263 125.042 C 277.974 125.042,277.871 124.859,277.871 124.348 C 277.871 123.865,277.666 123.462,277.199 123.025 C 276.269 122.156,276.265 121.232,277.191 121.232 C 277.619 121.232,277.938 121.387,278.087 121.666 M87.332 124.759 C 87.280 125.099,87.237 124.874,87.235 124.258 C 87.233 123.641,87.275 123.363,87.329 123.638 C 87.382 123.914,87.383 124.418,87.332 124.759 M128.868 124.880 C 128.859 124.969,128.852 125.294,128.852 125.602 C 128.852 126.004,128.731 126.162,128.424 126.162 C 128.006 126.162,127.984 125.915,128.311 124.855 C 128.404 124.555,128.900 124.576,128.868 124.880 M110.321 125.858 C 110.559 126.096,110.260 126.376,109.910 126.241 C 109.730 126.172,109.638 126.025,109.706 125.915 C 109.852 125.680,110.118 125.655,110.321 125.858 M89.038 126.841 C 89.264 127.330,89.568 127.731,89.713 127.731 C 89.859 127.731,90.151 128.130,90.362 128.617 C 90.573 129.104,90.950 129.612,91.199 129.745 C 91.498 129.905,91.653 130.215,91.653 130.652 C 91.653 131.018,91.759 131.317,91.890 131.317 C 92.020 131.317,92.065 131.417,91.989 131.541 C 91.706 131.998,91.004 131.743,90.558 131.022 C 90.305 130.613,89.894 130.093,89.643 129.866 C 89.393 129.640,89.188 129.272,89.188 129.050 C 89.188 128.828,88.948 128.415,88.656 128.132 C 87.976 127.477,87.690 125.936,88.249 125.944 C 88.469 125.948,88.800 126.324,89.038 126.841 M124.930 127.137 C 125.302 127.336,125.075 127.423,123.585 127.649 C 122.599 127.799,121.768 127.929,121.737 127.938 C 121.706 127.948,121.681 128.145,121.681 128.377 C 121.681 128.895,119.028 129.151,116.303 128.896 L 114.622 128.739 115.229 128.328 C 115.725 127.991,116.325 127.909,118.511 127.879 C 120.618 127.851,121.274 127.766,121.601 127.480 C 122.524 126.674,123.817 126.541,124.930 127.137 M113.501 127.163 C 114.159 127.464,114.143 127.471,112.773 127.489 C 111.290 127.508,111.054 127.397,111.877 127.066 C 112.553 126.794,112.717 126.804,113.501 127.163 M309.468 132.220 C 309.468 133.096,307.938 135.126,307.279 135.126 C 306.847 135.126,306.949 133.846,307.406 133.514 C 308.017 133.070,308.571 132.172,308.571 131.624 C 308.571 131.245,308.672 131.161,309.020 131.252 C 309.369 131.343,309.468 131.557,309.468 132.220 M94.230 134.080 C 94.230 134.664,93.790 134.628,93.707 134.037 C 93.655 133.674,93.726 133.539,93.931 133.607 C 94.095 133.662,94.230 133.875,94.230 134.080 M96.415 135.347 C 96.680 135.349,96.807 135.527,96.807 135.897 C 96.807 136.198,96.908 136.506,97.031 136.583 C 97.401 136.812,97.284 137.143,96.831 137.143 C 96.235 137.143,94.677 135.714,94.893 135.365 C 94.990 135.208,95.274 135.143,95.543 135.216 C 95.807 135.286,96.199 135.345,96.415 135.347 M306.779 135.428 C 306.779 136.106,304.832 137.928,304.448 137.610 C 303.741 137.022,304.293 136.246,305.419 136.246 C 305.719 136.246,305.882 136.101,305.882 135.836 C 305.882 135.610,305.950 135.358,306.032 135.275 C 306.292 135.015,306.779 135.114,306.779 135.428 M100.507 138.346 C 100.690 138.530,100.840 138.790,100.840 138.925 C 100.840 139.060,101.131 139.229,101.487 139.300 C 101.870 139.377,102.233 139.646,102.376 139.961 C 102.509 140.253,102.873 140.556,103.184 140.634 C 104.049 140.851,103.634 141.165,102.685 141.012 C 102.225 140.937,101.395 140.544,100.840 140.139 C 100.286 139.733,99.416 139.207,98.908 138.970 C 97.941 138.518,97.596 138.170,97.795 137.848 C 97.970 137.564,100.120 137.960,100.507 138.346 M271.528 138.711 C 271.698 139.163,271.936 139.384,272.249 139.384 C 272.507 139.384,272.717 139.491,272.717 139.621 C 272.717 140.310,271.036 139.719,270.967 139.005 C 270.916 138.478,270.770 138.266,270.407 138.196 C 270.041 138.125,270.089 138.092,270.595 138.070 C 271.157 138.045,271.318 138.156,271.528 138.711 M298.936 140.918 C 298.936 141.466,298.145 142.162,297.711 141.995 C 297.299 141.837,297.250 140.813,297.647 140.653 C 298.316 140.383,298.936 140.510,298.936 140.918 M274.468 141.094 C 274.751 141.599,276.199 142.065,277.498 142.069 C 278.237 142.072,278.552 142.158,278.491 142.341 C 278.116 143.466,274.049 142.612,273.750 141.345 C 273.584 140.641,274.112 140.457,274.468 141.094 M107.853 141.971 C 109.147 142.126,109.361 142.369,108.617 142.838 C 108.268 143.058,105.474 142.523,105.118 142.168 C 104.905 141.955,105.646 141.617,106.106 141.718 C 106.353 141.772,107.139 141.886,107.853 141.971 M129.120 142.342 C 128.973 142.490,128.852 142.808,128.852 143.049 C 128.852 143.450,128.819 143.457,128.459 143.136 C 128.244 142.944,127.823 142.752,127.525 142.710 C 126.346 142.543,126.767 142.073,128.093 142.073 C 129.101 142.073,129.330 142.133,129.120 142.342 M296.134 142.410 C 295.242 142.699,294.310 142.639,293.905 142.268 C 293.782 142.156,294.401 142.083,295.361 142.096 L 297.031 142.120 296.134 142.410 M113.826 143.415 C 115.528 143.418,115.446 143.802,113.699 144.009 C 112.327 144.172,109.676 143.682,110.364 143.392 C 110.611 143.289,111.165 143.251,111.597 143.308 C 112.028 143.366,113.031 143.414,113.826 143.415 M125.266 143.405 C 125.787 143.560,125.756 143.594,124.818 143.887 C 123.533 144.288,117.915 144.251,117.152 143.836 L 116.639 143.557 117.199 143.397 C 117.942 143.186,124.551 143.192,125.266 143.405 M290.532 143.386 L 291.429 143.553 290.539 143.855 C 289.861 144.085,288.747 144.124,285.833 144.018 C 280.544 143.825,279.579 143.563,283.585 143.408 C 288.620 143.212,289.583 143.209,290.532 143.386 " stroke="none" fill="#540404" fill-rule="evenodd"></path><path id="path2" d="M169.856 1.625 C 169.854 2.536,169.661 3.938,169.416 4.818 C 169.176 5.681,168.769 7.193,168.511 8.179 C 168.253 9.165,167.893 10.476,167.711 11.092 C 167.138 13.027,166.504 18.576,166.515 21.546 C 166.519 22.698,166.377 24.347,166.199 25.210 C 166.020 26.073,165.808 27.384,165.726 28.123 C 165.550 29.723,165.020 31.698,164.591 32.356 C 164.013 33.242,163.790 35.651,164.031 38.402 C 164.266 41.082,164.302 41.231,165.212 43.249 C 165.517 43.927,166.007 45.133,166.301 45.929 C 166.709 47.034,167.196 47.758,168.364 48.998 C 169.966 50.696,170.271 51.353,170.795 54.230 C 171.151 56.183,170.872 65.429,170.399 67.339 C 170.119 68.469,170.024 69.660,170.059 71.597 C 170.085 73.076,170.114 74.689,170.123 75.182 C 170.158 77.247,169.864 78.090,168.649 79.406 C 167.181 80.996,166.858 80.896,174.231 81.123 L 180.283 81.310 182.859 82.102 C 185.616 82.949,188.707 84.159,188.901 84.467 C 188.966 84.571,189.390 84.810,189.842 84.998 C 190.294 85.186,190.770 85.538,190.899 85.779 C 191.038 86.038,191.568 86.327,192.193 86.484 C 192.776 86.631,193.475 86.972,193.748 87.241 C 194.020 87.511,194.404 87.861,194.601 88.020 C 195.172 88.482,195.082 90.408,194.461 91.030 C 194.187 91.303,193.806 91.836,193.613 92.213 C 193.254 92.918,193.070 93.155,191.714 94.656 C 191.280 95.137,190.924 95.663,190.924 95.825 C 190.924 95.986,190.731 96.222,190.494 96.349 C 190.258 96.476,189.942 96.958,189.794 97.421 C 189.420 98.585,189.007 98.992,188.029 99.157 C 187.156 99.304,185.322 98.751,185.322 98.340 C 185.322 98.223,184.945 97.971,184.484 97.778 C 184.023 97.585,183.376 97.202,183.048 96.925 C 182.719 96.649,182.023 96.354,181.501 96.271 C 180.979 96.187,180.267 95.916,179.918 95.668 C 179.570 95.420,178.702 95.111,177.990 94.981 C 177.278 94.852,176.140 94.534,175.463 94.275 C 173.725 93.612,169.839 93.628,169.111 94.302 C 168.845 94.548,168.199 94.864,167.675 95.003 C 167.151 95.142,166.723 95.389,166.723 95.553 C 166.723 95.716,166.496 96.139,166.218 96.491 C 165.521 97.378,165.475 100.544,166.155 100.932 C 166.390 101.066,166.790 101.388,167.044 101.647 C 167.299 101.906,168.036 102.292,168.682 102.505 C 169.329 102.718,169.936 103.034,170.033 103.206 C 170.140 103.397,170.908 103.614,171.995 103.760 C 173.041 103.901,174.022 104.173,174.361 104.417 C 174.719 104.674,175.650 104.919,176.800 105.058 C 178.030 105.206,178.865 105.434,179.267 105.732 C 179.601 105.979,180.369 106.249,180.974 106.332 C 182.578 106.553,183.819 106.893,184.202 107.216 C 184.387 107.372,185.015 107.616,185.599 107.758 C 186.715 108.029,189.580 109.496,189.580 109.796 C 189.580 109.893,189.857 110.113,190.196 110.286 C 191.668 111.035,193.308 112.273,193.682 112.916 C 193.905 113.300,194.174 113.613,194.280 113.613 C 194.386 113.613,194.651 114.092,194.869 114.678 C 195.088 115.263,195.495 116.023,195.775 116.365 C 196.055 116.708,196.343 117.363,196.414 117.822 C 196.485 118.280,196.755 119.085,197.015 119.611 C 197.738 121.071,197.749 126.534,197.031 127.843 C 196.761 128.336,196.481 129.212,196.410 129.790 C 196.338 130.367,196.048 131.181,195.765 131.597 C 195.483 132.014,195.189 132.600,195.112 132.900 C 194.986 133.397,193.970 134.910,192.665 136.547 C 192.385 136.897,191.678 137.428,191.092 137.727 C 190.507 138.026,190.028 138.363,190.028 138.475 C 190.028 138.587,189.625 138.857,189.132 139.075 C 188.639 139.292,188.235 139.550,188.235 139.648 C 188.235 140.028,184.890 141.454,183.081 141.844 C 182.034 142.071,180.723 142.379,180.168 142.529 C 178.401 143.008,169.790 142.850,167.691 142.301 C 164.491 141.462,161.912 141.732,162.422 142.852 C 162.569 143.174,162.689 143.815,162.689 144.274 C 162.689 144.734,162.852 145.344,163.052 145.629 C 163.342 146.042,163.364 146.258,163.164 146.697 C 163.026 147.000,162.913 147.550,162.913 147.918 C 162.913 148.287,162.719 149.820,162.481 151.325 C 161.926 154.836,161.654 157.549,161.220 163.922 C 160.642 172.399,160.021 180.111,159.687 182.969 C 159.514 184.448,159.308 186.938,159.228 188.501 C 159.128 190.473,158.969 191.571,158.708 192.087 C 158.427 192.644,158.292 193.778,158.168 196.639 C 157.641 208.798,157.338 213.121,156.962 213.841 C 156.655 214.430,156.563 215.457,156.470 219.328 L 156.355 224.090 200.094 224.090 L 243.834 224.090 243.710 221.625 C 243.641 220.269,243.528 218.031,243.459 216.652 C 243.389 215.273,243.225 213.945,243.094 213.701 C 242.963 213.456,242.773 211.231,242.671 208.757 C 242.569 206.282,242.382 203.501,242.257 202.577 C 242.131 201.653,241.935 199.132,241.821 196.975 C 241.685 194.409,241.489 192.714,241.255 192.073 C 241.002 191.380,240.891 190.260,240.879 188.263 C 240.869 186.707,240.773 184.627,240.665 183.641 C 240.558 182.655,240.312 180.084,240.119 177.927 C 239.925 175.770,239.620 172.997,239.440 171.765 C 239.260 170.532,239.006 167.709,238.874 165.490 C 238.743 163.272,238.530 161.053,238.402 160.560 C 238.273 160.067,238.075 157.697,237.962 155.294 C 237.841 152.727,237.625 150.508,237.438 149.916 C 236.933 148.314,236.785 145.443,237.152 144.378 C 237.967 142.010,236.974 141.407,233.725 142.295 C 230.328 143.225,222.696 143.174,220.102 142.204 C 219.573 142.006,218.478 141.750,217.670 141.636 C 216.861 141.521,216.034 141.283,215.831 141.107 C 215.628 140.930,214.942 140.616,214.305 140.409 C 213.669 140.202,213.098 139.901,213.036 139.740 C 212.974 139.579,212.474 139.333,211.924 139.195 C 211.285 139.034,210.792 138.740,210.555 138.379 C 210.352 138.069,210.040 137.815,209.862 137.815 C 209.441 137.815,207.955 137.106,207.955 136.904 C 207.955 136.819,207.649 136.622,207.274 136.467 C 206.900 136.312,206.489 135.989,206.361 135.750 C 206.233 135.511,205.843 135.216,205.495 135.094 C 204.258 134.663,204.540 131.057,205.850 130.554 C 206.026 130.487,206.270 130.167,206.393 129.844 C 206.515 129.521,206.813 129.205,207.054 129.142 C 207.295 129.079,207.553 128.835,207.628 128.601 C 207.702 128.366,208.045 128.028,208.391 127.850 C 208.736 127.671,209.072 127.320,209.138 127.070 C 209.203 126.821,209.518 126.516,209.838 126.395 C 210.158 126.273,210.420 126.015,210.420 125.821 C 210.420 123.272,213.319 122.836,215.546 125.049 C 216.286 125.785,217.034 126.387,217.207 126.387 C 217.381 126.387,217.933 126.683,218.432 127.045 C 218.932 127.407,219.729 127.773,220.203 127.860 C 220.677 127.946,221.339 128.210,221.674 128.445 C 223.361 129.628,230.721 129.629,232.010 128.446 C 232.276 128.203,232.831 127.932,233.244 127.845 C 233.675 127.753,234.379 127.301,234.897 126.783 L 235.799 125.881 235.787 122.717 C 235.772 119.218,235.605 118.323,234.901 117.970 C 234.640 117.839,234.243 117.519,234.020 117.259 C 233.611 116.783,231.633 115.883,229.605 115.249 C 228.017 114.752,223.501 114.942,221.961 115.570 C 219.151 116.716,215.016 116.927,214.309 115.960 C 214.162 115.758,213.655 115.386,213.183 115.133 C 212.349 114.686,211.894 114.329,210.673 113.165 C 210.350 112.857,209.634 112.446,209.083 112.252 C 207.928 111.845,207.618 111.057,207.812 109.020 C 208.194 105.012,208.431 103.223,208.631 102.851 C 208.759 102.612,208.954 99.143,209.074 94.966 C 209.405 83.526,209.424 83.344,210.397 82.251 L 211.204 81.344 213.333 81.587 C 215.877 81.877,220.554 81.958,228.571 81.850 C 229.975 81.831,232.164 81.150,232.152 80.736 C 232.149 80.639,231.950 80.308,231.709 80.000 C 231.468 79.692,231.268 79.373,231.265 79.290 C 231.263 79.208,231.049 78.653,230.790 78.058 C 230.354 77.052,230.318 76.535,230.286 70.812 C 230.256 65.327,230.207 64.568,229.846 63.906 C 229.363 63.020,229.041 58.950,229.153 55.116 C 229.244 51.971,229.936 50.470,232.031 48.873 C 233.511 47.745,234.083 46.924,234.297 45.621 C 234.380 45.118,234.823 44.151,235.282 43.473 C 236.579 41.558,236.694 41.268,237.121 38.880 C 238.021 33.845,238.105 32.825,237.676 32.169 C 236.427 30.263,234.973 23.832,234.406 17.703 C 234.157 15.010,233.436 11.342,233.064 10.870 C 231.950 9.458,230.736 5.411,230.634 2.766 L 230.528 -0.000 200.194 -0.000 L 169.860 0.000 169.856 1.625 M112.510 79.792 C 111.842 80.029,110.172 80.337,108.800 80.476 L 106.304 80.729 106.399 81.373 C 106.518 82.187,107.404 82.263,108.011 81.513 C 108.414 81.015,108.505 81.007,115.144 80.896 C 118.842 80.835,121.934 80.719,122.014 80.639 C 122.326 80.325,120.346 79.928,118.211 79.877 C 116.977 79.848,115.683 79.712,115.336 79.576 C 114.485 79.241,113.945 79.283,112.510 79.792 M283.922 79.757 C 280.226 80.758,280.246 80.764,288.273 80.896 L 295.053 81.008 295.930 81.613 C 296.730 82.165,298.269 82.670,299.192 82.684 C 299.813 82.693,299.887 82.027,299.290 81.800 C 298.997 81.688,298.596 81.367,298.399 81.087 C 298.060 80.603,297.845 80.567,294.236 80.404 C 292.142 80.309,289.696 80.079,288.800 79.892 C 287.138 79.545,284.928 79.484,283.922 79.757 M102.651 82.547 C 102.047 83.525,102.059 83.585,102.849 83.585 C 103.293 83.585,103.597 83.430,103.764 83.118 C 103.901 82.861,104.358 82.507,104.780 82.331 C 105.830 81.892,105.747 81.793,104.332 81.793 C 103.195 81.793,103.088 81.841,102.651 82.547 M300.592 83.716 C 300.667 83.911,300.728 84.206,300.728 84.373 C 300.728 84.539,300.905 84.732,301.120 84.800 C 301.336 84.869,301.779 85.172,302.105 85.475 C 302.431 85.777,303.063 86.177,303.509 86.364 C 303.955 86.550,304.380 86.858,304.453 87.049 C 304.643 87.544,305.013 87.478,305.717 86.826 C 306.634 85.975,306.523 85.602,305.350 85.602 C 303.897 85.602,302.947 85.360,302.804 84.954 C 302.572 84.295,302.010 83.810,301.478 83.810 C 301.189 83.810,300.952 83.709,300.952 83.585 C 300.952 83.462,300.841 83.361,300.704 83.361 C 300.568 83.361,300.517 83.521,300.592 83.716 M100.280 83.971 C 100.034 84.030,99.629 84.265,99.381 84.493 C 99.133 84.722,98.553 85.066,98.092 85.258 C 97.632 85.451,97.255 85.736,97.255 85.892 C 97.255 86.048,96.952 86.290,96.583 86.430 C 95.794 86.728,95.582 87.843,96.314 87.843 C 96.866 87.843,97.255 87.408,97.255 86.790 C 97.255 86.315,97.351 86.275,98.480 86.275 C 99.491 86.275,99.748 86.193,99.954 85.807 C 100.092 85.550,100.549 85.196,100.970 85.020 C 101.656 84.734,102.054 84.034,101.531 84.034 C 101.418 84.034,101.191 83.995,101.027 83.948 C 100.863 83.901,100.527 83.911,100.280 83.971 M93.760 88.326 C 92.877 89.756,92.159 91.429,92.430 91.429 C 92.602 91.429,92.774 91.202,92.814 90.924 C 92.868 90.538,93.055 90.404,93.613 90.350 C 94.076 90.305,94.342 90.159,94.342 89.947 C 94.342 89.764,94.597 89.378,94.909 89.089 L 95.475 88.564 94.763 88.316 C 93.894 88.013,93.954 88.012,93.760 88.326 M308.450 90.548 C 308.129 91.068,308.576 92.773,309.033 92.773 C 309.387 92.773,309.466 92.617,309.461 91.933 C 309.451 90.806,308.822 89.945,308.450 90.548 M90.238 92.890 C 89.524 93.726,89.396 94.027,89.454 94.732 C 89.532 95.673,90.145 95.932,90.267 95.074 C 90.306 94.800,90.593 94.375,90.904 94.130 C 91.282 93.833,91.509 93.385,91.590 92.781 C 91.753 91.566,91.342 91.600,90.238 92.890 M309.916 94.764 C 309.916 95.390,309.985 95.462,310.588 95.462 C 311.201 95.462,311.261 95.528,311.261 96.211 C 311.261 96.779,311.387 97.017,311.787 97.199 C 312.333 97.448,312.598 98.586,312.603 100.703 C 312.605 101.332,312.754 101.711,313.142 102.071 C 314.405 103.241,314.251 122.577,312.979 122.577 C 312.766 122.577,312.626 122.990,312.531 123.898 C 312.375 125.385,311.995 126.387,311.587 126.387 C 311.239 126.387,311.042 127.383,311.242 128.131 L 311.395 128.704 311.886 128.178 C 312.155 127.889,312.427 127.493,312.489 127.299 C 312.551 127.105,312.872 126.796,313.202 126.611 C 313.774 126.290,313.800 126.201,313.750 124.677 C 313.702 123.238,313.754 123.018,314.267 122.465 C 314.987 121.687,315.169 120.723,314.837 119.440 C 314.503 118.149,314.512 117.919,314.976 115.630 C 315.461 113.234,315.626 110.424,315.315 109.844 C 314.840 108.955,314.759 107.010,315.181 106.588 C 315.453 106.316,315.523 106.022,315.418 105.594 C 315.336 105.259,315.059 103.776,314.802 102.297 C 314.545 100.818,314.249 99.255,314.143 98.824 C 313.949 98.030,312.629 96.449,310.868 94.902 L 309.916 94.065 309.916 94.764 M114.122 95.209 C 113.600 95.303,113.147 95.423,113.113 95.477 C 113.080 95.530,112.942 95.776,112.806 96.022 C 112.607 96.382,112.285 96.484,111.171 96.538 C 109.940 96.597,109.761 96.665,109.578 97.148 C 109.464 97.447,109.117 97.754,108.803 97.833 C 108.314 97.956,107.933 98.824,108.369 98.824 C 108.944 98.824,110.909 98.065,111.009 97.805 C 111.185 97.347,111.679 97.400,112.157 97.927 C 112.694 98.520,112.860 98.494,113.211 97.759 C 113.662 96.817,115.198 96.343,116.107 96.865 C 116.620 97.159,116.890 97.196,117.223 97.018 C 118.186 96.503,120.791 95.776,121.061 95.947 C 121.448 96.193,122.838 96.175,123.243 95.919 C 123.798 95.568,123.302 95.372,121.728 95.320 C 120.901 95.292,119.064 95.218,117.647 95.155 C 116.230 95.091,114.643 95.116,114.122 95.209 M223.027 95.294 C 222.905 95.448,222.740 96.230,222.659 97.031 C 222.579 97.832,222.369 98.891,222.191 99.384 C 221.830 100.386,221.742 102.316,222.048 102.505 C 222.157 102.573,223.039 102.521,224.008 102.391 C 224.977 102.260,227.706 102.155,230.072 102.157 C 234.938 102.161,234.722 102.277,233.382 100.374 C 232.683 99.380,232.669 99.318,232.965 98.469 C 233.133 97.986,233.272 97.427,233.274 97.225 C 233.276 97.024,233.645 96.580,234.094 96.237 C 234.858 95.654,234.884 95.596,234.499 95.314 C 233.924 94.894,223.358 94.876,223.027 95.294 M282.633 95.252 C 281.700 95.538,281.709 95.977,282.660 96.564 C 283.685 97.198,284.548 97.159,285.292 96.446 C 285.977 95.789,288.102 95.622,289.394 96.123 C 290.326 96.484,291.231 95.851,290.462 95.376 C 290.084 95.142,283.342 95.036,282.633 95.252 M87.981 96.118 C 87.300 96.253,86.508 97.391,86.489 98.260 C 86.483 98.508,86.322 99.115,86.131 99.608 C 85.939 100.101,85.697 101.462,85.591 102.633 C 85.486 103.804,85.331 105.499,85.246 106.401 C 85.100 107.948,85.651 110.950,86.014 110.588 C 86.077 110.524,86.187 108.683,86.258 106.496 C 86.379 102.747,86.413 102.509,86.853 102.316 C 87.224 102.153,87.378 101.761,87.602 100.411 C 87.768 99.410,88.052 98.527,88.294 98.263 C 89.283 97.181,89.096 95.898,87.981 96.118 M279.863 97.018 C 279.423 97.380,278.795 97.744,278.467 97.826 C 277.950 97.956,277.871 98.091,277.871 98.848 C 277.871 99.779,278.251 100.006,278.768 99.384 C 278.921 99.199,279.164 99.048,279.308 99.048 C 279.652 99.048,281.681 96.981,281.681 96.631 C 281.681 96.135,280.675 96.349,279.863 97.018 M291.551 97.423 C 291.823 97.885,292.586 98.775,293.247 99.400 C 293.908 100.025,294.561 100.857,294.698 101.249 C 294.834 101.640,295.037 101.961,295.148 101.961 C 295.259 101.961,295.350 102.100,295.350 102.271 C 295.350 102.544,296.252 103.305,296.575 103.305 C 296.641 103.305,296.695 103.003,296.695 102.633 C 296.695 102.193,296.582 101.961,296.367 101.961 C 296.170 101.961,295.942 101.582,295.794 101.008 C 295.658 100.485,295.499 99.905,295.440 99.720 C 295.380 99.535,294.907 99.176,294.389 98.923 C 293.629 98.552,293.387 98.279,293.144 97.523 C 292.857 96.626,292.801 96.583,291.949 96.583 L 291.056 96.583 291.551 97.423 M107.160 99.092 C 106.803 99.449,106.817 99.944,107.184 99.944 C 107.665 99.944,108.316 99.359,108.144 99.082 C 107.938 98.748,107.500 98.752,107.160 99.092 M105.768 100.509 C 105.546 100.923,105.532 101.140,105.715 101.323 C 106.138 101.746,106.667 101.357,106.667 100.623 C 106.667 99.785,106.188 99.724,105.768 100.509 M276.681 100.537 C 276.460 100.758,276.490 102.360,276.718 102.501 C 277.182 102.788,277.625 102.076,277.462 101.305 C 277.302 100.549,276.982 100.235,276.681 100.537 M104.501 102.088 C 104.339 102.509,104.736 102.969,105.079 102.757 C 105.448 102.529,105.371 101.737,104.979 101.737 C 104.790 101.737,104.575 101.895,104.501 102.088 M103.222 103.585 C 102.855 104.956,103.297 106.526,103.884 105.938 C 104.169 105.654,104.367 103.410,104.122 103.253 C 103.664 102.959,103.360 103.071,103.222 103.585 M102.599 107.964 C 101.418 108.681,101.325 115.469,102.490 115.980 C 102.918 116.168,102.983 116.422,103.097 118.367 C 103.216 120.389,103.268 120.578,103.825 121.017 C 104.156 121.277,104.426 121.638,104.426 121.821 C 104.426 122.003,104.728 122.258,105.098 122.387 C 105.517 122.533,105.770 122.776,105.770 123.034 C 105.770 123.539,106.032 123.727,106.410 123.493 C 106.760 123.277,106.531 122.211,106.099 122.045 C 105.932 121.981,105.672 121.495,105.522 120.964 C 105.372 120.434,105.122 119.894,104.967 119.764 C 104.587 119.446,103.721 117.051,103.635 116.078 C 103.596 115.647,103.411 114.647,103.222 113.857 C 102.920 112.590,102.918 112.205,103.201 110.608 C 103.741 107.554,103.684 107.306,102.599 107.964 M85.658 114.872 C 85.159 116.515,85.517 121.409,86.072 120.533 C 86.295 120.181,86.302 117.023,86.084 115.182 L 85.938 113.950 85.658 114.872 M297.748 115.600 C 297.649 116.262,297.624 116.858,297.692 116.926 C 297.959 117.193,298.061 116.747,297.996 115.599 L 297.927 114.398 297.748 115.600 M275.185 117.143 C 275.190 119.652,275.304 119.838,276.245 118.869 C 277.022 118.069,277.024 118.060,276.560 117.735 C 276.302 117.554,275.984 117.007,275.852 116.518 C 275.488 115.168,275.182 115.455,275.185 117.143 M165.154 117.482 C 164.422 117.859,164.350 118.516,164.902 119.765 C 165.229 120.504,165.363 121.343,165.397 122.849 L 165.442 124.919 164.570 125.310 C 164.090 125.526,163.597 125.741,163.473 125.789 C 163.350 125.838,163.476 126.124,163.754 126.426 C 164.031 126.728,164.258 127.087,164.258 127.223 C 164.258 127.359,164.775 127.581,165.406 127.716 C 166.038 127.852,166.843 128.206,167.197 128.503 C 167.627 128.865,168.227 129.083,169.017 129.164 C 172.005 129.470,173.989 129.513,176.541 129.329 L 179.301 129.129 180.725 128.150 C 182.286 127.076,182.409 126.818,182.409 124.612 C 182.409 123.285,181.093 121.457,180.138 121.457 C 179.946 121.457,179.566 121.264,179.294 121.028 C 179.022 120.792,178.276 120.477,177.635 120.328 C 176.995 120.179,176.168 119.880,175.798 119.663 C 175.429 119.446,174.489 119.159,173.709 119.026 C 172.930 118.893,171.962 118.580,171.557 118.329 C 171.064 118.025,170.124 117.800,168.716 117.650 C 167.558 117.526,166.409 117.372,166.162 117.309 C 165.916 117.245,165.462 117.323,165.154 117.482 M296.639 117.551 C 296.546 117.645,296.471 118.028,296.471 118.401 C 296.471 118.888,296.539 119.012,296.712 118.840 C 296.845 118.707,296.921 118.324,296.880 117.989 C 296.840 117.654,296.731 117.457,296.639 117.551 M296.315 119.599 C 296.168 119.651,295.932 120.044,295.790 120.472 C 295.603 121.041,295.372 121.284,294.937 121.372 C 293.927 121.575,293.397 122.070,293.828 122.409 C 294.540 122.969,294.530 123.627,293.806 123.879 C 293.442 124.006,293.039 124.307,292.910 124.547 C 292.782 124.786,292.363 125.046,291.980 125.122 C 291.438 125.231,291.207 125.450,290.947 126.104 C 290.617 126.933,289.912 127.416,288.403 127.849 C 288.095 127.938,287.727 128.103,287.584 128.217 C 287.423 128.345,286.763 128.293,285.834 128.077 C 283.568 127.552,283.025 127.657,283.025 128.621 C 283.025 129.293,289.419 129.054,289.596 128.376 C 289.655 128.151,289.991 127.850,290.342 127.707 C 293.043 126.613,293.982 126.034,294.238 125.307 C 294.381 124.898,294.791 124.264,295.148 123.899 C 295.506 123.533,295.798 123.092,295.798 122.918 C 295.798 122.745,296.008 122.455,296.265 122.276 C 297.066 121.715,297.111 119.321,296.315 119.599 M276.527 121.815 C 276.527 122.173,276.785 122.639,277.199 123.025 C 277.666 123.462,277.871 123.865,277.871 124.348 C 277.871 124.859,277.974 125.042,278.263 125.042 C 278.796 125.043,280.560 126.639,280.560 127.120 C 280.560 127.378,280.738 127.507,281.094 127.507 C 281.868 127.507,281.343 125.938,280.472 125.647 C 280.131 125.534,279.888 125.285,279.888 125.050 C 279.888 124.828,279.535 124.378,279.104 124.049 C 278.513 123.598,278.319 123.284,278.319 122.775 C 278.319 121.737,277.951 121.232,277.191 121.232 C 276.625 121.232,276.527 121.319,276.527 121.815 M87.235 124.258 C 87.237 124.874,87.280 125.099,87.332 124.759 C 87.383 124.418,87.382 123.914,87.329 123.638 C 87.275 123.363,87.233 123.641,87.235 124.258 M128.311 124.855 C 127.984 125.915,128.006 126.162,128.424 126.162 C 128.731 126.162,128.852 126.004,128.852 125.602 C 128.852 125.294,128.859 124.969,128.868 124.880 C 128.900 124.576,128.404 124.555,128.311 124.855 M109.706 125.915 C 109.638 126.025,109.730 126.172,109.910 126.241 C 110.260 126.376,110.559 126.096,110.321 125.858 C 110.118 125.655,109.852 125.680,109.706 125.915 M87.997 126.779 C 88.067 127.241,88.363 127.850,88.656 128.132 C 88.948 128.415,89.188 128.828,89.188 129.050 C 89.188 129.272,89.393 129.640,89.643 129.866 C 89.894 130.093,90.305 130.613,90.558 131.022 C 91.004 131.743,91.706 131.998,91.989 131.541 C 92.065 131.417,92.020 131.317,91.890 131.317 C 91.759 131.317,91.653 131.018,91.653 130.652 C 91.653 130.215,91.498 129.905,91.199 129.745 C 90.950 129.612,90.573 129.104,90.362 128.617 C 90.151 128.130,89.859 127.731,89.713 127.731 C 89.568 127.731,89.264 127.330,89.038 126.841 C 88.482 125.635,87.820 125.595,87.997 126.779 M122.689 126.887 C 122.319 127.014,121.830 127.281,121.601 127.480 C 121.274 127.766,120.618 127.851,118.511 127.879 C 116.325 127.909,115.725 127.991,115.229 128.328 L 114.622 128.739 116.303 128.896 C 119.028 129.151,121.681 128.895,121.681 128.377 C 121.681 128.145,121.706 127.948,121.737 127.938 C 121.768 127.929,122.599 127.799,123.585 127.649 C 125.075 127.423,125.302 127.336,124.930 127.137 C 124.176 126.733,123.394 126.646,122.689 126.887 M111.877 127.066 C 111.054 127.397,111.290 127.508,112.773 127.489 C 114.143 127.471,114.159 127.464,113.501 127.163 C 112.717 126.804,112.553 126.794,111.877 127.066 M308.571 131.624 C 308.571 132.172,308.017 133.070,307.406 133.514 C 306.949 133.846,306.847 135.126,307.279 135.126 C 308.559 135.126,310.165 131.551,309.020 131.252 C 308.672 131.161,308.571 131.245,308.571 131.624 M93.707 134.037 C 93.748 134.328,93.882 134.541,94.006 134.510 C 94.336 134.427,94.278 133.723,93.931 133.607 C 93.726 133.539,93.655 133.674,93.707 134.037 M94.893 135.365 C 94.677 135.714,96.235 137.143,96.831 137.143 C 97.284 137.143,97.401 136.812,97.031 136.583 C 96.908 136.506,96.807 136.198,96.807 135.897 C 96.807 135.527,96.680 135.349,96.415 135.347 C 96.199 135.345,95.807 135.286,95.543 135.216 C 95.274 135.143,94.990 135.208,94.893 135.365 M306.032 135.275 C 305.950 135.358,305.882 135.610,305.882 135.836 C 305.882 136.101,305.719 136.246,305.419 136.246 C 304.293 136.246,303.741 137.022,304.448 137.610 C 304.832 137.928,306.779 136.106,306.779 135.428 C 306.779 135.114,306.292 135.015,306.032 135.275 M97.795 137.848 C 97.596 138.170,97.941 138.518,98.908 138.970 C 99.416 139.207,100.286 139.733,100.840 140.139 C 101.395 140.544,102.225 140.937,102.685 141.012 C 103.634 141.165,104.049 140.851,103.184 140.634 C 102.873 140.556,102.509 140.253,102.376 139.961 C 102.233 139.646,101.870 139.377,101.487 139.300 C 101.131 139.229,100.840 139.060,100.840 138.925 C 100.840 138.242,98.141 137.287,97.795 137.848 M270.407 138.196 C 270.770 138.266,270.916 138.478,270.967 139.005 C 271.036 139.719,272.717 140.310,272.717 139.621 C 272.717 139.491,272.507 139.384,272.249 139.384 C 271.936 139.384,271.698 139.163,271.528 138.711 C 271.318 138.156,271.157 138.045,270.595 138.070 C 270.089 138.092,270.041 138.125,270.407 138.196 M297.647 140.653 C 297.250 140.813,297.299 141.837,297.711 141.995 C 298.145 142.162,298.936 141.466,298.936 140.918 C 298.936 140.510,298.316 140.383,297.647 140.653 M273.750 141.345 C 274.049 142.612,278.116 143.466,278.491 142.341 C 278.552 142.158,278.237 142.072,277.498 142.069 C 276.199 142.065,274.751 141.599,274.468 141.094 C 274.112 140.457,273.584 140.641,273.750 141.345 M105.329 141.834 C 104.867 142.134,105.033 142.233,106.740 142.681 C 107.836 142.969,108.343 143.011,108.617 142.838 C 109.361 142.369,109.147 142.126,107.853 141.971 C 107.139 141.886,106.353 141.772,106.106 141.718 C 105.860 141.664,105.510 141.717,105.329 141.834 M126.890 142.353 C 126.940 142.507,127.226 142.667,127.525 142.710 C 127.823 142.752,128.244 142.944,128.459 143.136 C 128.819 143.457,128.852 143.450,128.852 143.049 C 128.852 142.808,128.973 142.490,129.120 142.342 C 129.330 142.133,129.101 142.073,128.093 142.073 C 127.157 142.073,126.823 142.151,126.890 142.353 M293.905 142.268 C 294.310 142.639,295.242 142.699,296.134 142.410 L 297.031 142.120 295.361 142.096 C 294.401 142.083,293.782 142.156,293.905 142.268 M110.364 143.392 C 109.676 143.682,112.327 144.172,113.699 144.009 C 115.446 143.802,115.528 143.418,113.826 143.415 C 113.031 143.414,112.028 143.366,111.597 143.308 C 111.165 143.251,110.611 143.289,110.364 143.392 M117.199 143.397 L 116.639 143.557 117.152 143.836 C 117.915 144.251,123.533 144.288,124.818 143.887 C 125.756 143.594,125.787 143.560,125.266 143.405 C 124.551 143.192,117.942 143.186,117.199 143.397 M283.585 143.408 C 279.579 143.563,280.544 143.825,285.833 144.018 C 288.747 144.124,289.861 144.085,290.539 143.855 L 291.429 143.553 290.532 143.386 C 289.583 143.209,288.620 143.212,283.585 143.408 " stroke="none" fill="#220404" fill-rule="evenodd"></path></g></svg>